<svg xmlns="http://www.w3.org/2000/svg" width="22" height="23" viewBox="0 0 22 23"><g><g><path d="M9.151 4.665c0 .933-1.017 1.68-2.31 1.68-1.295 0-2.312-.747-2.312-1.68 0-.933 1.017-1.68 2.311-1.68s2.311.747 2.311 1.68zm-.924 0c0-.327-.601-.746-1.387-.746-.785 0-1.386.373-1.386.746 0 .327.6.746 1.386.746.786 0 1.387-.373 1.387-.746zM22 10.73v9.937C22 21.974 20.983 23 19.689 23H5.499c-.276 0-.461-.187-.461-.467v-3.825C2.08 18.148 0 16.282 0 14.182V4.665C0 2.1 3.05 0 6.84 0s6.84 2.1 6.84 4.665v3.732h6.009c1.294 0 2.31 1.027 2.31 2.333zM.924 4.665c0 2.053 2.635 3.732 5.916 3.732 3.282 0 5.916-1.679 5.916-3.732S10.122.933 6.84.933C3.56.933.924 2.613.924 4.665zm9.984 3.732h1.848v-1.4c-.462.56-1.109 1.027-1.849 1.4zM5.5 12.13h14.189c.786 0 1.387-.607 1.387-1.4 0-.793-.601-1.4-1.387-1.4H6.84c-2.542 0-4.714-.933-5.916-2.332v7.184c0 1.633 1.71 3.033 4.114 3.546v-5.132c0-.28.185-.466.462-.466zm15.668 8.49v-8.024a2.36 2.36 0 0 1-1.387.467H6.055V18.1c.046.094.046.14.046.234 0 0-.046.046-.046.093v3.592h1.617v-2.146c0-.28.185-.466.462-.466.278 0 .463.186.463.466v2.146h1.71v-2.146c0-.28.185-.466.462-.466s.462.186.462.466v2.146h1.71v-2.146c0-.28.185-.466.462-.466.278 0 .462.186.462.466v2.146h1.71v-2.146c0-.28.185-.466.463-.466.277 0 .462.186.462.466v2.146h1.71v-2.146c0-.28.185-.466.462-.466s.462.186.462.466v2.146h.555c.786 0 1.387-.606 1.387-1.4z"/></g></g></svg>